<?xml version="1.0" encoding="UTF-8"?><svg id="Layer_1" xmlns="http://www.w3.org/2000/svg" xmlns:xlink="http://www.w3.org/1999/xlink" viewBox="0 0 1024 1024"><defs><linearGradient id="linear-gradient" x1="251.06" y1="189.82" x2="820.32" y2="894.23" gradientUnits="userSpaceOnUse"><stop offset="0" stop-color="#63c6f1"/><stop offset="1" stop-color="#457bbe"/></linearGradient><linearGradient id="linear-gradient-2" x1="251.07" y1="189.82" x2="820.33" y2="894.23" xlink:href="#linear-gradient"/><linearGradient id="linear-gradient-3" x1="272.01" y1="172.89" x2="841.27" y2="877.3" xlink:href="#linear-gradient"/><linearGradient id="linear-gradient-4" x1="289.33" y1="158.89" x2="858.59" y2="863.3" xlink:href="#linear-gradient"/></defs><path d="M511.45,100c-227.55,0-412.02,184.47-412.02,412.02s184.47,411.98,412.02,411.98c87.52,0,168.68-27.29,235.4-73.88l-73.09-73.09c-47.25,29.04-102.83,45.76-162.32,45.76-171.66,0-310.82-139.15-310.82-310.77S339.79,201.21,511.45,201.21s310.77,139.15,310.77,310.82c0,58.83-16.36,113.84-44.79,160.74l73.17,73.13c45.93-66.42,72.82-147.01,72.82-233.87,0-227.55-184.47-412.02-411.98-412.02Z" fill="url(#linear-gradient)"/><path d="M716.67,512.02c0,29.39-6.19,57.38-17.37,82.69l-83.09-83.09c-.22-57.73-47.03-104.41-104.76-104.41s-104.8,46.9-104.8,104.8,46.9,104.8,104.8,104.8c.66,0,1.32,0,1.97-.04l82.43,82.39c-25.75,11.58-54.31,18.07-84.4,18.07-113.36,0-205.22-91.91-205.22-205.22s91.86-205.22,205.22-205.22,205.22,91.86,205.22,205.22Z" fill="url(#linear-gradient-2)"/><path d="M777.43,672.76c-25.71,42.51-61.33,78.35-103.66,104.28l-77.91-77.87c46.06-20.84,83.05-58.17,103.44-104.45l78.13,78.04Z" fill="url(#linear-gradient-3)"/><path d="M924.57,819.85l-104.19,103.75-73.53-73.48c40.54-28.25,75.72-63.57,103.75-104.23l73.96,73.96Z" fill="url(#linear-gradient-4)"/></svg>