<svg xmlns="http://www.w3.org/2000/svg" xmlns:xlink="http://www.w3.org/1999/xlink" width="250" zoomAndPan="magnify" viewBox="0 0 187.5 74.999997" height="100" preserveAspectRatio="xMidYMid meet" version="1.0"><defs><filter x="0%" y="0%" width="100%" height="100%" id="1e635d1d04"><feColorMatrix values="0 0 0 0 1 0 0 0 0 1 0 0 0 0 1 0 0 0 1 0" color-interpolation-filters="sRGB"/></filter><g/><clipPath id="cc6453220f"><path d="M 0 0.101562 L 187 0.101562 L 187 74.898438 L 0 74.898438 Z M 0 0.101562 " clip-rule="nonzero"/></clipPath><clipPath id="34c98fb823"><path d="M 0 0.101562 L 187 0.101562 L 187 74.898438 L 0 74.898438 Z M 0 0.101562 " clip-rule="nonzero"/></clipPath><clipPath id="f307b41389"><path d="M 0 0.101562 L 187 0.101562 L 187 74.898438 L 0 74.898438 Z M 0 0.101562 " clip-rule="nonzero"/></clipPath><linearGradient x1="79.226997" gradientTransform="matrix(0.747789, 0, 0, 0.748752, 63.638236, 3.056661)" y1="-3.949143" x2="79.226997" gradientUnits="userSpaceOnUse" y2="95.951153" id="9f2b67acc8"><stop stop-opacity="1" stop-color="rgb(35.289001%, 78.42865%, 98.039246%)" offset="0"/><stop stop-opacity="1" stop-color="rgb(35.289001%, 78.42865%, 98.039246%)" offset="0.125"/><stop stop-opacity="1" stop-color="rgb(35.289001%, 78.42865%, 98.039246%)" offset="0.15625"/><stop stop-opacity="1" stop-color="rgb(35.237122%, 78.384399%, 98.042297%)" offset="0.171875"/><stop stop-opacity="1" stop-color="rgb(35.002136%, 78.186035%, 98.05603%)" offset="0.179688"/><stop stop-opacity="1" stop-color="rgb(34.637451%, 77.874756%, 98.078918%)" offset="0.1875"/><stop stop-opacity="1" stop-color="rgb(34.27124%, 77.563477%, 98.101807%)" offset="0.195312"/><stop stop-opacity="1" stop-color="rgb(33.906555%, 77.253723%, 98.124695%)" offset="0.203125"/><stop stop-opacity="1" stop-color="rgb(33.540344%, 76.942444%, 98.147583%)" offset="0.210938"/><stop stop-opacity="1" stop-color="rgb(33.175659%, 76.63269%, 98.170471%)" offset="0.21875"/><stop stop-opacity="1" stop-color="rgb(32.809448%, 76.321411%, 98.193359%)" offset="0.226562"/><stop stop-opacity="1" stop-color="rgb(32.444763%, 76.010132%, 98.216248%)" offset="0.234375"/><stop stop-opacity="1" stop-color="rgb(32.078552%, 75.700378%, 98.239136%)" offset="0.242188"/><stop stop-opacity="1" stop-color="rgb(31.713867%, 75.389099%, 98.262024%)" offset="0.25"/><stop stop-opacity="1" stop-color="rgb(31.347656%, 75.079346%, 98.284912%)" offset="0.257812"/><stop stop-opacity="1" stop-color="rgb(30.982971%, 74.768066%, 98.3078%)" offset="0.265625"/><stop stop-opacity="1" stop-color="rgb(30.61676%, 74.456787%, 98.330688%)" offset="0.273438"/><stop stop-opacity="1" stop-color="rgb(30.252075%, 74.147034%, 98.353577%)" offset="0.28125"/><stop stop-opacity="1" stop-color="rgb(29.885864%, 73.835754%, 98.376465%)" offset="0.289062"/><stop stop-opacity="1" stop-color="rgb(29.521179%, 73.526001%, 98.399353%)" offset="0.296875"/><stop stop-opacity="1" stop-color="rgb(29.156494%, 73.214722%, 98.422241%)" offset="0.304688"/><stop stop-opacity="1" stop-color="rgb(28.790283%, 72.903442%, 98.445129%)" offset="0.3125"/><stop stop-opacity="1" stop-color="rgb(28.425598%, 72.593689%, 98.468018%)" offset="0.320312"/><stop stop-opacity="1" stop-color="rgb(28.059387%, 72.28241%, 98.490906%)" offset="0.328125"/><stop stop-opacity="1" stop-color="rgb(27.694702%, 71.972656%, 98.512268%)" offset="0.335938"/><stop stop-opacity="1" stop-color="rgb(27.328491%, 71.661377%, 98.535156%)" offset="0.34375"/><stop stop-opacity="1" stop-color="rgb(26.963806%, 71.350098%, 98.558044%)" offset="0.351563"/><stop stop-opacity="1" stop-color="rgb(26.597595%, 71.040344%, 98.580933%)" offset="0.359375"/><stop stop-opacity="1" stop-color="rgb(26.23291%, 70.729065%, 98.603821%)" offset="0.367188"/><stop stop-opacity="1" stop-color="rgb(25.866699%, 70.419312%, 98.626709%)" offset="0.375"/><stop stop-opacity="1" stop-color="rgb(25.502014%, 70.108032%, 98.649597%)" offset="0.382813"/><stop stop-opacity="1" stop-color="rgb(25.135803%, 69.796753%, 98.672485%)" offset="0.390625"/><stop stop-opacity="1" stop-color="rgb(24.771118%, 69.487%, 98.695374%)" offset="0.398438"/><stop stop-opacity="1" stop-color="rgb(24.404907%, 69.17572%, 98.718262%)" offset="0.40625"/><stop stop-opacity="1" stop-color="rgb(24.040222%, 68.865967%, 98.74115%)" offset="0.414062"/><stop stop-opacity="1" stop-color="rgb(23.674011%, 68.554688%, 98.764038%)" offset="0.421875"/><stop stop-opacity="1" stop-color="rgb(23.309326%, 68.243408%, 98.786926%)" offset="0.429688"/><stop stop-opacity="1" stop-color="rgb(22.943115%, 67.933655%, 98.809814%)" offset="0.4375"/><stop stop-opacity="1" stop-color="rgb(22.57843%, 67.622375%, 98.832703%)" offset="0.445313"/><stop stop-opacity="1" stop-color="rgb(22.212219%, 67.312622%, 98.855591%)" offset="0.453125"/><stop stop-opacity="1" stop-color="rgb(21.847534%, 67.001343%, 98.878479%)" offset="0.460938"/><stop stop-opacity="1" stop-color="rgb(21.481323%, 66.690063%, 98.901367%)" offset="0.46875"/><stop stop-opacity="1" stop-color="rgb(21.116638%, 66.38031%, 98.924255%)" offset="0.476563"/><stop stop-opacity="1" stop-color="rgb(20.750427%, 66.069031%, 98.947144%)" offset="0.484375"/><stop stop-opacity="1" stop-color="rgb(20.385742%, 65.759277%, 98.970032%)" offset="0.492188"/><stop stop-opacity="1" stop-color="rgb(20.019531%, 65.447998%, 98.99292%)" offset="0.5"/><stop stop-opacity="1" stop-color="rgb(19.654846%, 65.136719%, 99.015808%)" offset="0.507812"/><stop stop-opacity="1" stop-color="rgb(19.288635%, 64.826965%, 99.038696%)" offset="0.515625"/><stop stop-opacity="1" stop-color="rgb(18.92395%, 64.515686%, 99.061584%)" offset="0.523438"/><stop stop-opacity="1" stop-color="rgb(18.557739%, 64.205933%, 99.084473%)" offset="0.53125"/><stop stop-opacity="1" stop-color="rgb(18.193054%, 63.894653%, 99.107361%)" offset="0.539062"/><stop stop-opacity="1" stop-color="rgb(17.828369%, 63.583374%, 99.128723%)" offset="0.546875"/><stop stop-opacity="1" stop-color="rgb(17.462158%, 63.273621%, 99.151611%)" offset="0.554688"/><stop stop-opacity="1" stop-color="rgb(17.097473%, 62.962341%, 99.1745%)" offset="0.5625"/><stop stop-opacity="1" stop-color="rgb(16.731262%, 62.652588%, 99.197388%)" offset="0.570312"/><stop stop-opacity="1" stop-color="rgb(16.366577%, 62.341309%, 99.220276%)" offset="0.578125"/><stop stop-opacity="1" stop-color="rgb(16.000366%, 62.030029%, 99.243164%)" offset="0.585938"/><stop stop-opacity="1" stop-color="rgb(15.635681%, 61.720276%, 99.266052%)" offset="0.59375"/><stop stop-opacity="1" stop-color="rgb(15.26947%, 61.408997%, 99.28894%)" offset="0.601563"/><stop stop-opacity="1" stop-color="rgb(14.904785%, 61.097717%, 99.311829%)" offset="0.609375"/><stop stop-opacity="1" stop-color="rgb(14.538574%, 60.787964%, 99.334717%)" offset="0.617188"/><stop stop-opacity="1" stop-color="rgb(14.173889%, 60.476685%, 99.357605%)" offset="0.625"/><stop stop-opacity="1" stop-color="rgb(13.807678%, 60.166931%, 99.380493%)" offset="0.632813"/><stop stop-opacity="1" stop-color="rgb(13.442993%, 59.855652%, 99.403381%)" offset="0.640625"/><stop stop-opacity="1" stop-color="rgb(13.076782%, 59.544373%, 99.42627%)" offset="0.648438"/><stop stop-opacity="1" stop-color="rgb(12.712097%, 59.234619%, 99.449158%)" offset="0.65625"/><stop stop-opacity="1" stop-color="rgb(12.345886%, 58.92334%, 99.472046%)" offset="0.664062"/><stop stop-opacity="1" stop-color="rgb(11.981201%, 58.613586%, 99.494934%)" offset="0.671875"/><stop stop-opacity="1" stop-color="rgb(11.61499%, 58.302307%, 99.517822%)" offset="0.679688"/><stop stop-opacity="1" stop-color="rgb(11.250305%, 57.991028%, 99.54071%)" offset="0.6875"/><stop stop-opacity="1" stop-color="rgb(10.884094%, 57.681274%, 99.563599%)" offset="0.695313"/><stop stop-opacity="1" stop-color="rgb(10.519409%, 57.369995%, 99.586487%)" offset="0.703125"/><stop stop-opacity="1" stop-color="rgb(10.153198%, 57.060242%, 99.609375%)" offset="0.710938"/><stop stop-opacity="1" stop-color="rgb(9.788513%, 56.748962%, 99.632263%)" offset="0.71875"/><stop stop-opacity="1" stop-color="rgb(9.422302%, 56.437683%, 99.655151%)" offset="0.726562"/><stop stop-opacity="1" stop-color="rgb(9.057617%, 56.12793%, 99.67804%)" offset="0.734375"/><stop stop-opacity="1" stop-color="rgb(8.691406%, 55.81665%, 99.700928%)" offset="0.742188"/><stop stop-opacity="1" stop-color="rgb(8.326721%, 55.506897%, 99.723816%)" offset="0.75"/><stop stop-opacity="1" stop-color="rgb(7.96051%, 55.195618%, 99.745178%)" offset="0.757813"/><stop stop-opacity="1" stop-color="rgb(7.595825%, 54.884338%, 99.768066%)" offset="0.765625"/><stop stop-opacity="1" stop-color="rgb(7.229614%, 54.574585%, 99.790955%)" offset="0.773438"/><stop stop-opacity="1" stop-color="rgb(6.864929%, 54.263306%, 99.813843%)" offset="0.78125"/><stop stop-opacity="1" stop-color="rgb(6.500244%, 53.953552%, 99.836731%)" offset="0.789063"/><stop stop-opacity="1" stop-color="rgb(6.134033%, 53.642273%, 99.859619%)" offset="0.796875"/><stop stop-opacity="1" stop-color="rgb(5.769348%, 53.330994%, 99.882507%)" offset="0.804688"/><stop stop-opacity="1" stop-color="rgb(5.403137%, 53.02124%, 99.905396%)" offset="0.8125"/><stop stop-opacity="1" stop-color="rgb(5.038452%, 52.709961%, 99.928284%)" offset="0.820312"/><stop stop-opacity="1" stop-color="rgb(4.672241%, 52.400208%, 99.951172%)" offset="0.828125"/><stop stop-opacity="1" stop-color="rgb(4.307556%, 52.088928%, 99.97406%)" offset="0.835938"/><stop stop-opacity="1" stop-color="rgb(4.022217%, 51.846313%, 99.992371%)" offset="0.84375"/><stop stop-opacity="1" stop-color="rgb(3.919983%, 51.759338%, 100%)" offset="0.875"/><stop stop-opacity="1" stop-color="rgb(3.919983%, 51.759338%, 100%)" offset="1"/></linearGradient><clipPath id="c112a92ddb"><rect x="0" width="187" y="0" height="75"/></clipPath><clipPath id="3ab9d408da"><path d="M 0 0.101562 L 187 0.101562 L 187 74.898438 L 0 74.898438 Z M 0 0.101562 " clip-rule="nonzero"/></clipPath><clipPath id="78eb96cf8d"><rect x="0" width="187" y="0" height="75"/></clipPath><clipPath id="d01eabb586"><rect x="0" width="187" y="0" height="75"/></clipPath><mask id="1ead32d72c"><g filter="url(#1e635d1d04)"><g transform="matrix(1, 0, 0, 1, 0, -0.000000000000008674)"><g clip-path="url(#d01eabb586)"><g clip-path="url(#3ab9d408da)"><g transform="matrix(1, 0, 0, 1, 0, -0.000000000000008674)"><g clip-path="url(#78eb96cf8d)"><g fill="#000000" fill-opacity="1"><g transform="translate(63.416882, 53.58211)"><g><path d="M 22.9375 -37.59375 L 22.9375 -33.703125 L 13.765625 -33.703125 L 13.765625 0 L 9.578125 0 L 9.578125 -33.703125 L 0.5 -33.703125 L 0.5 -37.59375 Z M 22.9375 -37.59375 "/></g></g></g><g fill="#000000" fill-opacity="1"><g transform="translate(86.850759, 53.58211)"><g><path d="M 14.5625 -19.34375 C 14.15625 -19.644531 13.773438 -19.894531 13.421875 -20.09375 C 13.078125 -20.289062 12.660156 -20.390625 12.171875 -20.390625 C 10.671875 -20.390625 9.53125 -19.722656 8.75 -18.390625 C 7.96875 -17.066406 7.578125 -14.925781 7.578125 -11.96875 L 7.578125 0 L 3.59375 0 L 3.59375 -23.4375 L 7.578125 -23.4375 L 7.578125 -20.890625 L 7.671875 -20.890625 C 8.640625 -22.179688 9.5 -23.035156 10.25 -23.453125 C 11 -23.867188 11.867188 -24.078125 12.859375 -24.078125 C 13.460938 -24.078125 14.070312 -23.976562 14.6875 -23.78125 C 15.300781 -23.582031 15.890625 -23.316406 16.453125 -22.984375 Z M 14.5625 -19.34375 "/></g></g></g><g fill="#000000" fill-opacity="1"><g transform="translate(103.553627, 53.58211)"><g><path d="M 21.1875 -20.09375 L 21.1875 -23.4375 L 25.171875 -23.4375 L 25.171875 0 L 21.1875 0 L 21.1875 -3.234375 L 21.09375 -3.234375 C 19.03125 -0.648438 16.335938 0.640625 13.015625 0.640625 C 9.753906 0.640625 7.066406 -0.550781 4.953125 -2.9375 C 2.847656 -5.332031 1.796875 -8.242188 1.796875 -11.671875 C 1.796875 -15.253906 2.859375 -18.21875 4.984375 -20.5625 C 7.109375 -22.90625 9.800781 -24.078125 13.0625 -24.078125 C 14.6875 -24.078125 16.1875 -23.726562 17.5625 -23.03125 C 18.945312 -22.332031 20.125 -21.351562 21.09375 -20.09375 Z M 13.515625 -20.390625 C 11.390625 -20.390625 9.585938 -19.570312 8.109375 -17.9375 C 6.628906 -16.3125 5.890625 -14.320312 5.890625 -11.96875 C 5.890625 -9.4375 6.609375 -7.316406 8.046875 -5.609375 C 9.492188 -3.898438 11.332031 -3.046875 13.5625 -3.046875 C 15.925781 -3.046875 17.820312 -3.859375 19.25 -5.484375 C 20.675781 -7.109375 21.390625 -9.253906 21.390625 -11.921875 C 21.390625 -14.347656 20.65625 -16.363281 19.1875 -17.96875 C 17.726562 -19.582031 15.835938 -20.390625 13.515625 -20.390625 Z M 13.515625 -20.390625 "/></g></g></g><g fill="#000000" fill-opacity="1"><g transform="translate(132.322441, 53.58211)"><g><path d="M 21.1875 -16.453125 L 21.09375 -16.453125 C 20.226562 -17.617188 19.171875 -18.566406 17.921875 -19.296875 C 16.679688 -20.023438 15.3125 -20.390625 13.8125 -20.390625 C 11.488281 -20.390625 9.523438 -19.539062 7.921875 -17.84375 C 6.328125 -16.15625 5.53125 -14.113281 5.53125 -11.71875 C 5.53125 -9.320312 6.296875 -7.273438 7.828125 -5.578125 C 9.359375 -3.890625 11.285156 -3.046875 13.609375 -3.046875 C 15.304688 -3.046875 16.757812 -3.398438 17.96875 -4.109375 C 19.1875 -4.828125 20.273438 -5.816406 21.234375 -7.078125 L 21.34375 -7.078125 L 21.34375 -1.75 C 20.238281 -0.976562 19.070312 -0.390625 17.84375 0.015625 C 16.613281 0.429688 15.300781 0.640625 13.90625 0.640625 C 11.675781 0.640625 9.585938 0.109375 7.640625 -0.953125 C 5.703125 -2.015625 4.1875 -3.5 3.09375 -5.40625 C 2 -7.320312 1.453125 -9.425781 1.453125 -11.71875 C 1.453125 -13.875 1.988281 -15.90625 3.0625 -17.8125 C 4.144531 -19.726562 5.664062 -21.25 7.625 -22.375 C 9.582031 -23.507812 11.691406 -24.078125 13.953125 -24.078125 C 15.148438 -24.078125 16.320312 -23.910156 17.46875 -23.578125 C 18.625 -23.242188 19.863281 -22.628906 21.1875 -21.734375 Z M 21.1875 -16.453125 "/></g></g></g><g fill="#000000" fill-opacity="1"><g transform="translate(156.05547, 53.58211)"><g><path d="M 24.1875 -10.875 L 5.78125 -10.875 C 5.851562 -8.539062 6.617188 -6.648438 8.078125 -5.203125 C 9.535156 -3.765625 11.332031 -3.046875 13.46875 -3.046875 C 14.957031 -3.046875 16.273438 -3.425781 17.421875 -4.1875 C 18.566406 -4.945312 19.625 -6.175781 20.59375 -7.875 L 23.984375 -5.9375 C 22.847656 -3.84375 21.359375 -2.222656 19.515625 -1.078125 C 17.671875 0.0664062 15.550781 0.640625 13.15625 0.640625 C 10.863281 0.640625 8.835938 0.09375 7.078125 -1 C 5.316406 -2.09375 3.976562 -3.5625 3.0625 -5.40625 C 2.144531 -7.25 1.6875 -9.253906 1.6875 -11.421875 C 1.6875 -13.804688 2.144531 -15.960938 3.0625 -17.890625 C 3.976562 -19.828125 5.300781 -21.34375 7.03125 -22.4375 C 8.757812 -23.53125 10.769531 -24.078125 13.0625 -24.078125 C 15.289062 -24.078125 17.257812 -23.535156 18.96875 -22.453125 C 20.6875 -21.378906 21.992188 -19.894531 22.890625 -18 C 23.785156 -16.101562 24.234375 -13.976562 24.234375 -11.625 C 24.234375 -11.382812 24.21875 -11.132812 24.1875 -10.875 Z M 20 -14.265625 C 19.664062 -16.085938 18.847656 -17.5625 17.546875 -18.6875 C 16.253906 -19.820312 14.773438 -20.390625 13.109375 -20.390625 C 11.484375 -20.390625 9.953125 -19.800781 8.515625 -18.625 C 7.085938 -17.445312 6.242188 -15.992188 5.984375 -14.265625 Z M 20 -14.265625 "/></g></g></g></g></g></g></g></g></g></mask><clipPath id="ccf4221a0f"><path d="M 0 0.101562 L 187 0.101562 L 187 74.898438 L 0 74.898438 Z M 0 0.101562 " clip-rule="nonzero"/></clipPath><clipPath id="2978ccc041"><rect x="0" width="187" y="0" height="75"/></clipPath><clipPath id="72dd98c0a5"><rect x="0" width="187" y="0" height="75"/></clipPath><clipPath id="049aaa43f3"><path d="M 11 14 L 57 14 L 57 61 L 11 61 Z M 11 14 " clip-rule="nonzero"/></clipPath><clipPath id="a4a0ca0be9"><path d="M 33.597656 14.929688 C 21.128906 14.929688 11.023438 25.035156 11.023438 37.5 C 11.023438 49.96875 21.128906 60.070312 33.597656 60.070312 C 38.390625 60.070312 42.835938 58.578125 46.492188 56.023438 L 42.488281 52.019531 C 39.898438 53.609375 36.855469 54.527344 33.59375 54.527344 C 24.191406 54.527344 16.566406 46.902344 16.566406 37.5 C 16.566406 28.097656 24.191406 20.472656 33.597656 20.472656 C 43 20.472656 50.621094 28.097656 50.621094 37.5 C 50.621094 40.726562 49.726562 43.738281 48.167969 46.308594 L 52.175781 50.3125 C 54.691406 46.675781 56.164062 42.261719 56.164062 37.5 C 56.164062 25.035156 46.058594 14.929688 33.59375 14.929688 Z M 33.597656 14.929688 " clip-rule="nonzero"/></clipPath><clipPath id="16ff31c040"><path d="M 22 26 L 45 26 L 45 49 L 22 49 Z M 22 26 " clip-rule="nonzero"/></clipPath><clipPath id="f269f4cfa0"><path d="M 44.839844 37.5 C 44.839844 39.109375 44.5 40.644531 43.886719 42.03125 L 39.335938 37.480469 C 39.324219 34.316406 36.757812 31.757812 33.597656 31.757812 C 30.433594 31.757812 27.855469 34.328125 27.855469 37.5 C 27.855469 40.671875 30.421875 43.242188 33.597656 43.242188 C 33.632812 43.242188 33.667969 43.242188 33.703125 43.238281 L 38.21875 47.753906 C 36.808594 48.386719 35.246094 48.742188 33.597656 48.742188 C 27.386719 48.742188 22.351562 43.707031 22.351562 37.5 C 22.351562 31.292969 27.386719 26.257812 33.597656 26.257812 C 39.804688 26.257812 44.839844 31.289062 44.839844 37.5 Z M 44.839844 37.5 " clip-rule="nonzero"/></clipPath><clipPath id="e972205db0"><path d="M 38 42 L 49 42 L 49 53 L 38 53 Z M 38 42 " clip-rule="nonzero"/></clipPath><clipPath id="e99ce7e52a"><path d="M 48.167969 46.308594 C 46.757812 48.636719 44.808594 50.601562 42.488281 52.019531 L 38.21875 47.753906 C 40.742188 46.613281 42.769531 44.566406 43.886719 42.03125 Z M 48.167969 46.308594 " clip-rule="nonzero"/></clipPath><clipPath id="28383447a0"><path d="M 46 50 L 57 50 L 57 61 L 46 61 Z M 46 50 " clip-rule="nonzero"/></clipPath><clipPath id="928adf8213"><path d="M 56.230469 54.367188 L 50.519531 60.050781 L 46.492188 56.023438 C 48.714844 54.476562 50.640625 52.542969 52.175781 50.3125 L 56.226562 54.367188 Z M 56.230469 54.367188 " clip-rule="nonzero"/></clipPath></defs><g clip-path="url(#cc6453220f)"><g transform="matrix(1, 0, 0, 1, 0, -0.000000000000008674)"><g clip-path="url(#72dd98c0a5)"><g clip-path="url(#34c98fb823)"><g mask="url(#1ead32d72c)"><g transform="matrix(1, 0, 0, 1, 0, -0.000000000000008674)"><g clip-path="url(#2978ccc041)"><g clip-path="url(#ccf4221a0f)"><path fill="url(#9f2b67acc8)" d="M 0 0.101562 L 0 74.898438 L 187 74.898438 L 187 0.101562 Z M 0 0.101562 " fill-rule="nonzero"/></g></g></g></g></g></g></g></g><g clip-path="url(#049aaa43f3)"><g clip-path="url(#a4a0ca0be9)"><path fill="#ffffff" d="M 11.023438 14.929688 L 11.023438 60.070312 L 56.164062 60.070312 L 56.164062 14.929688 Z M 11.023438 14.929688 " fill-opacity="1" fill-rule="nonzero"/></g></g><g clip-path="url(#16ff31c040)"><g clip-path="url(#f269f4cfa0)"><path fill="#ffffff" d="M 22.351562 26.257812 L 22.351562 48.742188 L 44.839844 48.742188 L 44.839844 26.257812 Z M 22.351562 26.257812 " fill-opacity="1" fill-rule="nonzero"/></g></g><g clip-path="url(#e972205db0)"><g clip-path="url(#e99ce7e52a)"><path fill="#ffffff" d="M 38.21875 42.03125 L 38.21875 52.019531 L 48.167969 52.019531 L 48.167969 42.03125 Z M 38.21875 42.03125 " fill-opacity="1" fill-rule="nonzero"/></g></g><g clip-path="url(#28383447a0)"><g clip-path="url(#928adf8213)"><path fill="#ffffff" d="M 46.492188 50.3125 L 46.492188 60.050781 L 56.230469 60.050781 L 56.230469 50.3125 Z M 46.492188 50.3125 " fill-opacity="1" fill-rule="nonzero"/></g></g></svg>