<?xml version="1.0" encoding="UTF-8"?>
<svg id="Layer_1" xmlns="http://www.w3.org/2000/svg" viewBox="0 0 841.28 804.55">
  <defs>
<!--Renamed gradients to ASCII/standard IDs-->
    <linearGradient id="grad154" x1="110.02" y1="705.03" x2="690.26" y2="124.8" gradientUnits="userSpaceOnUse">
      <stop offset="0" stop-color="#3379be"/>
      <stop offset="1" stop-color="#44bbbd"/>
    </linearGradient>
    <linearGradient id="grad11" x1="564.15" y1="357.23" x2="593.39" y2="357.23" gradientUnits="userSpaceOnUse">
      <stop offset="0" stop-color="#3379be"/>
      <stop offset=".07" stop-color="#3383c3"/>
      <stop offset=".28" stop-color="#359ccf"/>
      <stop offset=".5" stop-color="#36add8"/>
      <stop offset=".73" stop-color="#36b8dd"/>
      <stop offset="1" stop-color="#37bcdf"/>
    </linearGradient>
    <linearGradient id="grad11_2" x1="631.38" y1="397.24" x2="660.62" y2="397.24" gradientUnits="userSpaceOnUse" href="#grad11"/>
    <linearGradient id="grad11_3" x1="514.72" y1="501.66" x2="543.96" y2="501.66" gradientUnits="userSpaceOnUse" href="#grad11"/>
    <linearGradient id="grad11_4" x1="457.89" y1="482.36" x2="487.14" y2="482.36" gradientUnits="userSpaceOnUse" href="#grad11"/>
    <linearGradient id="grad170" x1="830.09" y1="707.75" x2="417.19" y2="294.85" gradientUnits="userSpaceOnUse">
      <stop offset="0" stop-color="#3f2855"/>
      <stop offset="1" stop-color="#401e63"/>
    </linearGradient>
    <linearGradient id="grad154_2" x1="397.67" y1="426.83" x2="700.59" y2="426.83" gradientUnits="userSpaceOnUse" href="#grad154"/>
<!--Renamed filter ID and fixed feComposite missing in2 by providing explicit in/in2 + operator-->
    <filter id="outerGlow1" filterUnits="objectBoundingBox" x="-20%" y="-20%" width="140%" height="140%">
      <feGaussianBlur in="SourceAlpha" stdDeviation="8.5" result="blur"/>
      <feFlood flood-color="#231916" flood-opacity=".75" result="flood"/>
      <feComposite in="flood" in2="blur" operator="in" result="shadow"/>
      <feComposite in="SourceGraphic" in2="shadow" operator="over"/>
    </filter>
  </defs>
  <path d="M699.13,224.46c-3.88-45.88-23.39-88.77-56.42-124.02-21.93-23.41-43.05-36.27-48.39-39.34.67-3.28,1.02-6.68,1.02-10.15,0-28.1-22.86-50.96-50.96-50.96-21.96,0-40.72,13.97-47.87,33.49-7.5-1.21-38.53-5.56-81.4-2.62-44.64,3.07-111.19,15.03-174.77,54.55-.13.08-.25.18-.37.26-8.91-7.61-20.45-12.23-33.06-12.23-28.1,0-50.96,22.86-50.96,50.96,0,9.15,2.43,17.73,6.67,25.16-.27.27-.54.53-.8.83-63.21,72.2-103.75,165.54-117.3,270.01-25.07,3.17-44.53,24.62-44.53,50.54,0,27.88,22.51,50.59,50.32,50.94,2.22,6.71,33.43,99.23,86.7,161.16.51.59,1.06,1.12,1.64,1.61-3.4,6.82-5.32,14.5-5.32,22.63,0,28.1,22.86,50.96,50.96,50.96,14.57,0,27.71-6.15,37.01-15.98.04.02.08.04.12.06,15.98,6.66,58.42,24.36,109.97,35.33,30.73,6.54,60.14,9.8,88.06,9.8s55-3.35,79.98-10.06c.21-.06.41-.13.61-.2,8.53,16.25,25.56,27.36,45.14,27.36,28.1,0,50.96-22.86,50.96-50.96,0-10.78-3.38-20.79-9.12-29.04l56.82-73.53c5.13-6.64,3.91-16.19-2.73-21.32-6.64-5.13-16.19-3.91-21.32,2.73l-56.74,73.43c-5.56-2.09-11.58-3.24-17.86-3.24-26.04,0-47.57,19.64-50.58,44.89-1.01.06-2.03.22-3.05.5-71.27,19.12-157.69,7.96-256.88-33.14.37-2.48.57-5.02.57-7.61,0-28.1-22.86-50.96-50.96-50.96-8.94,0-17.35,2.32-24.66,6.38-47.05-55-76.73-139.45-80.18-149.55,13.54-9.17,22.45-24.67,22.45-42.22,0-19.62-11.15-36.67-27.44-45.18,0-.07.03-.14.04-.21,12.61-98.97,50.72-187.19,110.2-255.13.03-.04.06-.08.09-.11,6.7,3.24,14.2,5.06,22.13,5.06,28.1,0,50.96-22.86,50.96-50.96,0-4.51-.6-8.88-1.7-13.05.07-.04.15-.08.22-.13,57.95-36.02,118.92-47.06,159.86-49.98,44.81-3.19,76.2,2.36,76.51,2.42.79.14,1.56.21,2.34.23,5.74,21.85,25.66,38.01,49.28,38.01,13.66,0,26.07-5.41,35.23-14.19,4.45,2.61,22.81,13.98,41.63,34.28,28.26,30.48,44.27,65.82,47.59,105.03.67,7.93,7.31,13.92,15.13,13.92.43,0,.86-.02,1.3-.05,8.36-.71,14.57-8.06,13.86-16.43ZM545.19,721.64c17.62,0,31.96,14.34,31.96,31.96s-14.34,31.96-31.96,31.96-31.96-14.34-31.96-31.96,14.34-31.96,31.96-31.96ZM216.25,707.28c0,17.62-14.34,31.96-31.96,31.96s-31.96-14.34-31.96-31.96,14.34-31.96,31.96-31.96,31.96,14.34,31.96,31.96ZM50.96,502.89c-17.62,0-31.96-14.34-31.96-31.96s14.34-31.96,31.96-31.96,31.96,14.34,31.96,31.96-14.34,31.96-31.96,31.96ZM206.92,156.37c-17.62,0-31.96-14.34-31.96-31.96s14.34-31.96,31.96-31.96,31.96,14.34,31.96,31.96-14.34,31.96-31.96,31.96ZM544.39,82.91c-17.62,0-31.96-14.34-31.96-31.96s14.34-31.96,31.96-31.96,31.96,14.34,31.96,31.96-14.34,31.96-31.96,31.96Z" fill="url(#grad154)"/>
  <circle cx="578.77" cy="357.23" r="14.62" fill="url(#grad11)"/>
  <circle cx="646" cy="397.24" r="14.62" fill="url(#grad11_2)"/>
  <circle cx="529.34" cy="501.66" r="14.62" fill="url(#grad11_3)"/>
  <circle cx="472.52" cy="482.36" r="14.62" fill="url(#grad11_4)"/>
  <path d="M827.53,643.9l-120.58-120.58c18.26-29.68,28.42-64.86,27.36-102.42-2.79-98.95-83.56-178.8-182.54-180.49-104.8-1.8-190.47,83.63-189.08,188.33,1.35,102.03,85.74,184.39,187.77,183.34,32.19-.33,62.45-8.9,88.76-23.67l121.9,121.9c9.15,9.15,21.18,13.73,33.2,13.73,12.62,0,25.23-5.04,34.53-15.11,7.92-8.58,12.37-19.93,12.42-31.61.06-12.62-4.83-24.5-13.75-33.42ZM802.47,685.65c-4.68,4.47-12.16,4.14-16.73-.44-20.97-20.97-116.15-116.15-116.15-116.15l.14-.11-7.75-7.88c-.9-.92-2.04-1.56-3.3-1.85-6.34-1.46-26.54-5.62-34.57-1.5-22.19,12.87-48.14,19.21-75.58,19.21-83.49,0-151.34-68.24-150.7-151.88.63-81.97,67.55-148.9,149.52-149.53,83.64-.64,151.88,67.21,151.88,150.7,0,29.57-8.56,57.18-23.33,80.48-1.56,2.47-2.28,5.37-2.05,8.28l1.99,24.95c.13,1.59.82,3.09,1.96,4.21l10.03,9.93.1-.08,19.6,19.6h0s94.89,94.89,94.89,94.89c2.13,2.13,3.54,4.94,3.7,7.96.19,3.49-1.13,6.8-3.64,9.2Z" fill="url(#grad170)"/>
  <path d="M549.13,275.37c-83.51,0-151.46,67.94-151.46,151.46s67.94,151.46,151.46,151.46c20.28,0,39.98-3.95,58.55-11.74,4.28-1.8,6.64-6.43,5.57-10.95-.3-1.24-.44-2.51-.44-3.77v-35.67c0-8.95,7.28-16.23,16.23-16.23h35.67c2.25,0,4.42.45,6.47,1.34,4.57,1.99,9.9.11,12.21-4.3,11.25-21.5,17.2-45.75,17.2-70.15,0-83.51-67.94-151.46-151.46-151.46ZM669.9,481.32c-1.71-.25-3.44-.38-5.19-.38h-35.67c-4.39,0-8.59.81-12.47,2.29l-33.22-33.22c4.59-7.91,7.23-17.09,7.23-26.87,0-29.62-24.1-53.72-53.72-53.72s-53.72,24.1-53.72,53.72,24.1,53.72,53.72,53.72c12.28,0,23.6-4.15,32.66-11.11l30.49,30.49c-3.91,5.67-6.21,12.54-6.21,19.94v35.4c-14.3,5.13-29.29,7.72-44.68,7.72-73.04,0-132.46-59.42-132.46-132.46s59.42-132.46,132.46-132.46,132.46,59.42,132.46,132.46c0,19.07-3.93,37.37-11.69,54.48ZM536.87,455.95c-18.1,0-32.82-14.72-32.82-32.82s14.72-32.82,32.82-32.82,32.82,14.72,32.82,32.82-14.72,32.82-32.82,32.82Z" fill="url(#grad154_2)"/>
</svg>
